<?xml version="1.0" standalone="no"?>
<!DOCTYPE svg PUBLIC "-//W3C//DTD SVG 20010904//EN"
 "http://www.w3.org/TR/2001/REC-SVG-20010904/DTD/svg10.dtd">
<svg version="1.0" xmlns="http://www.w3.org/2000/svg"
 width="512.000000pt" height="512.000000pt" viewBox="0 0 512.000000 512.000000"
 preserveAspectRatio="xMidYMid meet">
<metadata>
Created by potrace 1.14, written by Peter Selinger 2001-2017
</metadata>
<g transform="translate(0.000000,512.000000) scale(0.100000,-0.100000)"
fill="#000000" stroke="none">
<path d="M1895 4087 c-28 -13 -41 -45 -282 -703 l-251 -689 -435 -5 c-422 -5
-436 -6 -464 -26 -15 -11 -35 -40 -43 -62 -13 -37 -13 -47 0 -84 8 -22 28 -51
43 -62 28 -21 40 -21 498 -24 308 -2 483 1 509 8 76 21 78 25 285 604 174 487
193 536 203 510 5 -16 213 -576 461 -1244 413 -1112 454 -1218 488 -1252 32
-33 43 -38 81 -38 85 0 79 -12 352 737 l245 673 405 1 c437 0 457 2 494 52 26
36 27 110 2 149 -38 58 -40 58 -555 58 -513 0 -521 -1 -558 -56 -10 -15 -104
-269 -210 -563 -163 -457 -193 -532 -201 -511 -5 14 -204 565 -442 1225 -238
660 -439 1215 -447 1232 -28 60 -119 95 -178 70z"/>
</g>
</svg>
