<svg width="1144" height="205" viewBox="0 0 1144 205" fill="none" xmlns="http://www.w3.org/2000/svg">
<path d="M306.267 160.493V146.681L344.98 24.3171H382.72L421.433 146.681V160.493H392.447L364.628 53.1087H363.071L335.253 160.493H306.267ZM337.393 134.425V108.163H390.89V134.425H337.393Z" fill="#FFC95C"/>
<path d="M459.567 160.493C454.898 160.493 450.618 159.391 446.727 157.186C442.836 154.852 439.789 151.804 437.584 148.043C435.379 144.152 434.277 139.872 434.277 135.203V86.5691C434.277 81.9002 435.379 77.6204 437.584 73.7296C439.789 69.8389 442.836 66.7911 446.727 64.5864C450.618 62.3816 454.898 61.2792 459.567 61.2792H508.979V78.593L501.197 86.7636H470.85C468.126 86.7636 466.051 87.4769 464.624 88.9035C463.198 90.3301 462.485 92.4052 462.485 95.1287V126.449C462.485 129.302 463.198 131.442 464.624 132.869C466.051 134.166 468.126 134.814 470.85 134.814H508.979V160.493H459.567Z" fill="#FFC95C"/>
<path d="M558.537 160.493C553.868 160.493 549.589 159.391 545.698 157.186C541.807 154.852 538.759 151.804 536.555 148.043C534.35 144.152 533.247 139.872 533.247 135.203V85.4018H519.63V61.2792H534.415L544.336 34.044H561.455V61.2792H584.8V77.2313L576.824 85.4018H561.455V126.449C561.455 129.302 562.169 131.442 563.595 132.869C565.022 134.166 567.097 134.814 569.82 134.814H587.329V160.493H558.537Z" fill="#FFC95C"/>
<path d="M604.927 160.493V61.2792H633.329V160.493H604.927ZM604.927 44.549V17.1193H633.135V44.549H604.927Z" fill="#FFC95C"/>
<path d="M678.963 160.493L648.616 74.8968V61.2792H676.629L694.137 129.756H695.499L713.008 61.2792H741.021V74.8968L710.673 160.493H678.963Z" fill="#FFC95C"/>
<path d="M774.866 162.439C770.327 162.439 766.112 161.336 762.221 159.131C758.33 156.797 755.217 153.749 752.883 149.988C750.678 146.097 749.576 141.818 749.576 137.149V125.477C749.576 120.808 750.678 116.528 752.883 112.637C755.217 108.746 758.33 105.699 762.221 103.494C766.112 101.289 770.327 100.187 774.866 100.187H806.575V93.1833C806.575 90.3301 805.862 88.2551 804.435 86.9581C803.009 85.5315 800.934 84.8182 798.21 84.8182H758.136V61.2792H809.688C814.227 61.2792 818.442 62.3816 822.333 64.5864C826.224 66.7911 829.271 69.8389 831.476 73.7296C833.811 77.6204 834.978 81.9002 834.978 86.5691V160.493H815.135L810.855 149.794H809.882C808.326 153.166 805.732 156.149 802.101 158.742C798.47 161.207 793.93 162.439 788.483 162.439H774.866ZM795.098 138.9C797.562 138.9 799.637 138.446 801.323 137.538C803.009 136.63 804.306 135.333 805.214 133.647C806.121 131.831 806.575 129.756 806.575 127.422V120.419H785.565C783.101 120.419 781.221 121.002 779.924 122.169C778.627 123.337 777.978 125.087 777.978 127.422V131.118C777.978 133.582 778.627 135.528 779.924 136.954C781.35 138.251 783.231 138.9 785.565 138.9H795.098Z" fill="#FFC95C"/>
<path d="M851.743 160.493V137.538L894.93 87.5418V86.18H860.108L852.327 78.0094V61.2792H931.698V84.2346L888.51 134.231V135.592H931.698V160.493H851.743Z" fill="#FFC95C"/>
<path d="M972.506 162.439C967.838 162.439 963.558 161.336 959.667 159.131C955.776 156.797 952.729 153.749 950.524 149.988C948.319 146.097 947.217 141.818 947.217 137.149V84.6237C947.217 79.9548 948.319 75.675 950.524 71.7842C952.729 67.8935 955.776 64.8457 959.667 62.641C963.558 60.4362 967.838 59.3338 972.506 59.3338H1011.61C1016.28 59.3338 1020.49 60.4362 1024.25 62.641C1028.14 64.8457 1031.19 67.8935 1033.4 71.7842C1035.73 75.675 1036.9 79.9548 1036.9 84.6237V137.149C1036.9 141.818 1035.73 146.097 1033.4 149.988C1031.19 153.749 1028.14 156.797 1024.25 159.131C1020.49 161.336 1016.28 162.439 1011.61 162.439H972.506ZM1000.33 137.149C1003.05 137.149 1005.12 136.435 1006.55 135.009C1007.98 133.582 1008.69 131.507 1008.69 128.784V92.7943C1008.69 90.0707 1007.98 88.0605 1006.55 86.7636C1005.12 85.337 1003.05 84.6237 1000.33 84.6237H983.79C981.066 84.6237 978.991 85.337 977.564 86.7636C976.138 88.0605 975.425 90.0707 975.425 92.7943V128.784C975.425 131.507 976.138 133.582 977.564 135.009C978.991 136.435 981.066 137.149 983.79 137.149H1000.33Z" fill="#FFC95C"/>
<path d="M1058.21 160.493V61.2792H1077.86L1082.14 71.9788H1083.11C1084.67 68.6068 1087.2 65.6887 1090.7 63.2246C1094.33 60.6308 1098.74 59.3338 1103.93 59.3338H1118.71C1123.38 59.3338 1127.59 60.4362 1131.36 62.641C1135.25 64.8457 1138.29 67.8935 1140.5 71.7842C1142.83 75.675 1144 79.9548 1144 84.6237V160.493H1115.79V93.1833C1115.79 90.4598 1115.08 88.3847 1113.65 86.9581C1112.23 85.5315 1110.15 84.8182 1107.43 84.8182H1098.48C1096.01 84.8182 1093.87 85.337 1092.06 86.3745C1090.24 87.2824 1088.82 88.6441 1087.78 90.4598C1086.87 92.2755 1086.42 94.4802 1086.42 97.0741V160.493H1058.21Z" fill="#FFC95C"/>
<path fill-rule="evenodd" clip-rule="evenodd" d="M89.7303 0C93.7972 0 97.4348 2.53021 98.8496 6.34311L158.305 166.577L183.473 98.7483C184.887 94.9354 188.525 92.4052 192.592 92.4052H248.035V111.859H199.358L167.424 197.921C166.009 201.734 162.372 204.264 158.305 204.264C154.238 204.264 150.6 201.734 149.185 197.921L89.7303 37.6875L64.5624 105.516C63.1477 109.329 59.51 111.859 55.4431 111.859H0V92.4052H48.6774L80.611 6.34311C82.0258 2.53021 85.6634 0 89.7303 0Z" fill="#FFC95C"/>
</svg>
