<?xml version="1.0" encoding="utf-8"?>
<!-- Generator: Adobe Illustrator 27.0.0, SVG Export Plug-In . SVG Version: 6.00 Build 0)  -->
<svg version="1.1" id="Layer_1" xmlns="http://www.w3.org/2000/svg" xmlns:xlink="http://www.w3.org/1999/xlink" x="0px" y="0px"
	 viewBox="0 0 16 16" style="enable-background:new 0 0 16 16;" xml:space="preserve">
<style type="text/css">
	.st0{fill-rule:evenodd;clip-rule:evenodd;fill:#06D0F9;}
</style>
<path class="st0" d="M6,2c0.2,0,0.4,0.1,0.5,0.3L10,12l1.5-4.2c0.1-0.2,0.3-0.3,0.5-0.3h3.5C15.8,7.5,16,7.7,16,8
	c0,0.3-0.2,0.5-0.5,0.5h-3.1l-1.9,5.2c-0.1,0.3-0.4,0.4-0.6,0.3c-0.1-0.1-0.2-0.2-0.3-0.3L6,4L4.5,8.2C4.4,8.4,4.2,8.5,4,8.5H0.5
	C0.2,8.5,0,8.3,0,8c0-0.3,0.2-0.5,0.5-0.5h3.2l1.9-5.2C5.6,2.1,5.8,2,6,2z"/>
</svg>
